<?xml version="1.0" standalone="no"?>
<!DOCTYPE svg PUBLIC "-//W3C//DTD SVG 20010904//EN"
 "http://www.w3.org/TR/2001/REC-SVG-20010904/DTD/svg10.dtd">
<svg version="1.0" xmlns="http://www.w3.org/2000/svg"
 width="700.000000pt" height="700.000000pt" viewBox="0 0 700.000000 700.000000"
 preserveAspectRatio="xMidYMid meet">
<metadata>
Created by potrace 1.11, written by Peter Selinger 2001-2013
</metadata>
<g transform="translate(0.000000,700.000000) scale(0.100000,-0.100000)"
fill="#000000" stroke="none">
<path d="M3080 6207 l0 -794 -57 -13 c-148 -33 -321 -102 -503 -202 -250 -136
-519 -398 -687 -669 -122 -196 -224 -463 -264 -694 -24 -139 -32 -418 -16
-560 72 -648 485 -1236 1069 -1523 68 -33 139 -67 158 -75 51 -22 219 -74 263
-82 l37 -7 0 -794 0 -794 420 0 420 0 0 794 0 794 38 7 c128 23 423 146 573
238 503 309 846 851 916 1447 10 83 10 355 1 441 -15 127 -49 283 -89 399 -38
111 -36 105 -108 252 -151 310 -366 554 -673 765 -62 43 -260 149 -306 164
-20 6 -41 15 -47 19 -15 11 -183 66 -248 81 l-57 14 0 792 0 793 -420 0 -420
0 0 -793z m600 -1601 c14 -3 39 -9 55 -12 17 -2 48 -10 70 -16 22 -6 42 -12
45 -13 21 -4 117 -45 170 -74 277 -145 492 -417 565 -716 24 -100 26 -116 31
-235 12 -327 -107 -619 -344 -847 -342 -329 -846 -405 -1272 -192 -293 147
-488 387 -584 719 -24 81 -31 151 -31 300 1 234 65 432 203 630 57 82 177 201
263 263 137 97 323 173 474 193 28 3 52 8 54 10 6 5 274 -3 301 -10z"/>
</g>
</svg>
